<?xml version="1.0" encoding="UTF-8"?><svg id="Capa_1" xmlns="http://www.w3.org/2000/svg" viewBox="0 0 614.19 389.01"><defs><style>.cls-1{fill:#902d2d;stroke-width:0px;}</style></defs><path class="cls-1" d="M465.93,389.01c-82.35-3.37-153.48-32.5-211.17-92.44-1.57-1.63-2.66-3.59-5.74-2.19-25.77,11.66-52.54,19.9-80.68,23.56-37.34,4.87-73.91,2.94-108.31-13.86C25.95,287.43,4.88,260.65.66,222.24c-2.63-23.95,2.87-46.63,12.5-68.48,20.37-46.2,54.39-79.99,96.58-106.33C148.2,23.41,189.45,6.3,234.78,1.5c40.65-4.3,80.3-.07,116,22.27,20.46,12.8,34.8,30.79,42.22,53.93,1.04,3.24,2.51,4.61,6.04,5.28,56.76,10.79,108.03,33.53,151.44,72.1,26.52,23.56,47.4,51.56,57.89,85.96,11.91,39.06,6.08,74.93-22.66,105.31-17.93,18.96-40.81,29.54-65.73,35.99-17.67,4.57-35.68,6.56-54.05,6.66ZM599.81,243.42c-.47.4-.66.49-.7.61-.21.79-.45,1.59-.56,2.4-2.77,19.27-13.58,32.88-30.08,42.37-17.17,9.88-36.08,14.09-55.53,14.41-80.27,1.32-149.86-26.64-210.01-78.87-17.36-15.08-31.56-33.01-39.75-54.92-7.88-21.09-7.63-41.41,6.79-60.07.24-.32.08-.95.13-1.68-42.69,21.99-62.05,64.55-50.48,110.43,7.19,28.53,22.23,52.77,42.45,73.59,54.13,55.73,120.65,84.47,197.96,88.28,29.29,1.44,57.91-2.82,84.7-15.42,33.36-15.68,55.52-40.32,59.97-78.21,1.71-14.54-.32-28.8-4.89-42.91ZM45.86,217.67c.42-.87.78-1.43.96-2.05,6-20.41,17.21-37.88,31.18-53.55,40.51-45.44,91.15-74.6,149.21-91.43,26.46-7.67,53.46-11.4,81.02-7.95,8.66,1.08,17.16,3.37,26.16,5.19,1.08-10.33-.42-20.16-5.67-29.25-8.52-14.76-22.41-21.91-38.15-26.01-20.91-5.45-42.14-4.15-63.05-.67C155.24,23.97,94.76,57.27,47.7,113.86c-12.32,14.82-22.72,30.81-26.37,50.34-4.31,23.08,4.65,43.2,24.52,53.47ZM333.76,237.99c1.8,1.33,3.14,2.56,4.68,3.42,15.06,8.5,29.7,17.92,45.33,25.2,40.49,18.86,82.92,29.9,128.04,28.03,14.89-.62,29.39-3.4,43.32-8.93,4.14-1.64,5.53-3.21,3.49-7.97-6.81-15.88-16.7-29.55-28.69-41.74-31.11-31.62-68.74-52.73-110.16-67.54-10.12-3.62-20.53-6.41-31.02-9.64-12.28,31.08-31.49,56.35-54.98,79.16ZM54.23,223.12c10.43,1.89,20.43,4.63,30.57,5.38,42.55,3.15,82.1-8.41,120.25-25.92,1.43-.66,2.72-3.1,2.85-4.81.52-6.63-.07-13.38.84-19.93,4.85-34.8,24.36-59.37,54.23-76.53,20.13-11.57,42.3-16.7,64.89-20.52,1.6-.27,3.14-.96,4.7-1.45.02-.47.05-.94.07-1.41-1.68-.8-3.29-1.81-5.04-2.37-23.65-7.52-47.69-6.75-71.7-2.58-44.04,7.64-84.01,25.35-120.81,50.38-26.97,18.35-50.78,39.98-67.96,68.11-5.72,9.37-10.5,19.21-12.9,31.64ZM209.13,211.05c-1.04.15-1.39.13-1.69.25-1.39.57-2.76,1.16-4.13,1.76-31.17,13.73-63.42,23.23-97.67,24.85-18.47.88-36.7-.61-54-7.53-19.73-7.89-34.45-20.7-38.78-42.75-.1-.53-.66-.97-1.17-1.68-9.56,40.13,3.6,80.9,41.55,104.56,24.2,15.08,51.09,20.56,79.13,21.02,38.44.63,74.87-8.49,109.91-23.76.97-.42,1.79-1.18,2.94-1.95-17.77-22.35-30.95-46.53-36.1-74.77ZM569.17,277.83c12.86-9.13,20.72-21.24,21.09-37.48.41-17.98-6.57-33.43-17.17-47.44-16.56-21.88-36.82-39.81-59.55-55.02-29.8-19.93-62.43-33.47-97.06-42.29-6.32-1.61-12.86-2.36-19.66-3.56,2.49,20.43.75,39.65-5.12,58.72,1.92.57,3.31,1.02,4.73,1.39,28.84,7.54,56.22,18.65,81.98,33.65,28.76,16.74,54.87,36.71,74.29,64.18,6.1,8.63,10.83,18.23,16.47,27.85ZM327.68,22.27c7.28,8.1,12.49,17.23,14.5,28,3.39,18.19-1.15,35.04-9.09,51.19-13.13,26.69-33.01,47.79-55.78,66.39-3.08,2.51-3.85,4.42-1.81,8.19,7.91,14.67,18.12,27.52,30.16,38.91,6.59,6.23,13.61,12.01,20.57,18.11,20.97-20.01,38.2-41.6,50-67.23,9.03-19.61,14.38-40,13.06-61.83-2.36-38.91-27.21-68.64-61.6-81.72ZM329.21,90.94c-1.85-.36-2.49-.66-3.08-.57-19.25,2.84-36.88,9.31-49.58,24.85-9.24,11.3-11.49,24.56-8.4,38.94,6.27-2.21,12.08-4.17,17.82-6.33,1.33-.5,2.66-1.46,3.58-2.55,9.03-10.61,18.4-20.97,26.79-32.07,5.01-6.64,8.44-14.48,12.87-22.27Z"/></svg>