<?xml version="1.0" encoding="UTF-8"?><svg id="Capa_1" xmlns="http://www.w3.org/2000/svg" viewBox="0 0 96.45 96.24"><defs><style>.cls-1{fill:#902d2d;stroke-width:0px;}</style></defs><path class="cls-1" d="M17.76,40.66c1.03-.61,2.06-1.22,3.1-1.82.19-.11.41-.19.68-.31-.14-.11-.21-.18-.3-.22-3.66-1.88-5.77-4.94-6.75-8.85-.11-.43-.26-.67-.72-.83-1.32-.47-1.96-1.52-2.16-2.86-.22-1.49-.44-2.98-.6-4.48-.41-3.86-.34-7.69.98-11.41,1.51-4.24,4.54-6.81,8.81-7.99,3.13-.87,6.33-.76,9.53-.6,2.59.13,5.18.25,7.77.26,1.76,0,3.44-.44,4.97-1.35.63-.37,1.18-.13,1.3.6.34,2.03.71,4.06.97,6.1.32,2.5.62,5,.81,7.51.28,3.68.27,7.35-.53,10.98-.37,1.66-1.34,2.8-2.97,3.31-.36.11-.5.3-.58.64-.67,2.9-2.04,5.4-4.32,7.35-.5.42-1.07.76-1.59,1.15-.16.12-.27.29-.4.43.14.11.27.26.44.33,2.65,1.2,5.01,2.82,7.1,4.84,2.69,2.59,4.68,5.65,5.94,9.17.04.11.1.21.18.39,1.57-1.56,3.39-2.67,5.44-3.65-.87-.27-1.62-.47-2.36-.72-1.21-.41-2.41-.84-3.61-1.29-.73-.27-.87-.57-.69-1.31,1.08-4.41,1.77-8.88,2.19-13.39.36-3.92.57-7.86.88-11.79.26-3.26,1.17-6.28,3.5-8.71.45-.47.64-.82.45-1.52-.4-1.47.64-2.92,2.15-3.17.31-.05.45-.17.56-.45,3.08-7.45,12.41-9.33,18.14-3.65,1.03,1.03,1.81,2.23,2.35,3.58.12.31.27.47.62.53,1.66.3,2.6,1.96,2.04,3.56-.08.23-.19.42.07.65,2.19,2.03,3.34,4.62,3.74,7.53.26,1.84.32,3.71.43,5.57.42,6.74,1.13,13.45,2.57,20.06.09.42.2.83.3,1.24.16.69.04,1.01-.63,1.24-1.84.65-3.69,1.26-5.53,1.89-.12.04-.23.08-.47.16.25.13.41.21.57.29,1.84.91,3.55,2.01,4.98,3.51,1.91,2.01,2.86,4.39,2.85,7.18-.02,6.89,0,13.79,0,20.68q0,.7.7.7c1.6,0,3.2,0,4.8,0,.66,0,1,.26,1,.76,0,.52-.36.8-1.03.8-4.01,0-8.03-.02-12.04-.02-7.55,0-15.1.01-22.66.04-.17,0-.41.16-.51.32-.27.39-.48.82-.76,1.33.32,0,.56,0,.8,0,6.57,0,13.15,0,19.72,0,.89,0,1.27.23,1.28.77,0,.55-.4.8-1.31.8-7.07,0-14.15,0-21.22,0-.39,0-.64.14-.92.39-1.75,1.58-3.53,3.13-5.3,4.7-1.36,1.2-2.62,2.5-3.51,4.11-.39.7-1.08.76-1.46.08-1.21-2.16-3.03-3.73-4.87-5.3-1.42-1.21-2.77-2.5-4.16-3.73-.16-.14-.43-.23-.65-.23-7.13-.01-14.25-.01-21.38-.02-.26,0-.6.03-.77-.11-.23-.18-.47-.55-.44-.79.04-.24.38-.51.65-.64.22-.11.52-.03.79-.03,6.59,0,13.19,0,19.78,0,.14,0,.28-.01.5-.02-.29-.53-.53-1.04-.84-1.5-.08-.12-.38-.13-.58-.13-6.82,0-13.65,0-20.47,0-4.47,0-8.95,0-13.42,0-.28,0-.57,0-.85-.02-.51-.04-.83-.37-.82-.81.02-.45.34-.74.87-.74,1.46,0,2.91,0,4.37,0,.39,0,.78,0,1.26,0,0-.24,0-.44,0-.64,0-6.33,0-12.65,0-18.98,0-4.35.81-8.51,2.84-12.39.34-.65.79-1.26,1.18-1.88.11-.08.24-.15.34-.24.77-.75,1.54-1.51,2.3-2.28,1.53-1.54,3.06-3.09,4.59-4.63ZM73.72,46.89c1.74.47,3.41.93,5.09,1.38.15.04.32.03.47-.01,2.29-.68,4.58-1.38,6.87-2.06.35-.11.39-.28.32-.63-1.52-6.76-2.24-13.62-2.7-20.52-.14-2.11-.25-4.22-.56-6.31-.35-2.26-1.35-4.25-3.02-5.86-.27-.26-.5-.29-.88-.24-.58.08-1.25.12-1.75-.11-.59-.26-1.11-.26-1.69-.19-5.16.59-10.32.58-15.47-.01-.51-.06-.97-.07-1.48.18-.43.22-1.06.35-1.48.19-.85-.33-1.24.16-1.69.66-.19.21-.37.43-.55.65-1.59,2.11-2.19,4.55-2.38,7.12-.29,3.83-.5,7.66-.85,11.48-.4,4.35-1.06,8.67-2.05,12.93-.1.42.03.59.38.69,2.26.68,4.52,1.35,6.78,2.02.18.05.39.06.57.01,1.55-.39,3.09-.8,4.64-1.19.27-.07.38-.17.38-.46-.01-1.39,0-2.77-.02-4.16,0-.17-.14-.41-.29-.48-3.17-1.51-5.03-4.07-5.9-7.41-.09-.36-.28-.51-.6-.64-1.24-.51-1.78-1.51-1.84-2.81-.06-1.31.36-2.39,1.6-3,.36-.17.45-.4.54-.75.34-1.32.61-2.68,1.13-3.93,1.07-2.56,2.87-4.4,5.74-4.87,1.95-.31,3.81-.15,5.33,1.3.56.54,1.06,1.14,1.58,1.72.75.84,1.65,1.38,2.82,1.42.89.03,1.78.06,2.66.17,2.46.32,4.37,1.35,4.92,4.03.03.14.24.29.39.36.84.37,1.36,1,1.57,1.89.42,1.76-.6,3.59-2.38,4.25-.27.1-.43.21-.5.52-.75,3.24-2.47,5.78-5.41,7.43-.12.07-.26.26-.26.39-.02,1.62-.01,3.23-.01,4.82ZM56.26,69.85c.25.12.41.19.56.26,2.13.96,3.65,2.49,4.37,4.74.61,1.91.55,3.85.1,5.79-.08.34-.16.67-.26,1.07.24,0,.42,0,.59,0,1.69,0,3.38,0,5.06,0,5.2,0,10.41,0,15.61,0,.42,0,.52-.13.47-.52-.15-1.05-.23-2.12-.4-3.17-.61-3.76-1.61-7.39-3.64-10.66-.37-.6-.37-1.06-.08-1.66.84-1.75,1.5-3.57,1.65-5.53.12-1.45-.51-2.4-1.93-2.76-3.39-.88-6.46-.05-9.31,1.84-.9.6-.87.6-1.76,0-2.7-1.83-5.66-2.62-8.9-1.95-1.85.38-2.47,1.27-2.3,3.15.18,1.96.9,3.75,1.73,5.51.21.45.19.81-.08,1.24-.53.85-.99,1.75-1.5,2.66ZM39.47,14.89c-.23.05-.42.09-.61.13-6.16,1.4-12.16,1.14-17.94-1.65-.14-.07-.43-.04-.55.06-1.33,1.1-2.36,2.43-3.15,3.96-.78,1.51-1.28,3.12-1.59,4.78-.09.5-.35.77-.85.87-1.22.24-1.68.9-1.63,2.28.04,1.13.65,1.84,1.75,2,.71.11.8.22.93.93.55,2.98,1.84,5.55,4.24,7.47,1.94,1.55,4.2,2.26,6.65,2.45,2.72.22,5.38-.02,7.84-1.26,3.52-1.77,5.36-4.79,6.11-8.56.17-.85.2-.91,1.06-1.06,1.53-.25,2.54-1.53,2.39-3.02-.08-.8-.61-1.37-1.36-1.37-.59,0-.86-.26-1.02-.79-.74-2.39-1.5-4.77-2.27-7.22ZM50.79,69.81c1.27-.39,2.49-.52,3.74-.36.12.01.31-.19.39-.33.4-.73.74-1.5,1.16-2.22.19-.33.19-.59.04-.93-.82-1.88-1.52-3.79-1.61-5.87-.07-1.71.54-3.03,2.14-3.83.98-.48,2.01-.71,3.08-.76,2.91-.13,5.59.59,8.05,2.15.23.14.4.28.71.08,1.64-1.11,3.47-1.78,5.43-2.08,1.8-.28,3.58-.29,5.3.38,1.57.61,2.59,1.68,2.62,3.45.01.79,0,1.62-.21,2.37-.39,1.43-.94,2.82-1.4,4.24-.06.19-.1.47,0,.63,1.52,2.56,2.52,5.33,3.13,8.23.44,2.08.68,4.2.98,6.31.05.34.15.45.49.44,1.1-.02,2.2,0,3.3,0,.08,0,.16-.03.26-.05,0-.12.02-.2.02-.29,0-7.09,0-14.18,0-21.27,0-.44-.03-.89-.1-1.33-.47-2.92-2.27-4.91-4.63-6.46-3.01-1.99-6.4-3.02-9.9-3.73-.34-.07-.56,0-.77.28-.91,1.23-1.85,2.43-2.75,3.66-.13.18-.18.49-.13.7.24.93-.02,1.81-.75,2.32-.69.48-1.68.47-2.35-.03-.74-.54-.98-1.4-.73-2.33.05-.2,0-.49-.11-.65-.9-1.23-1.85-2.43-2.76-3.66-.21-.28-.42-.4-.76-.3-2.01.58-4.06,1.04-6.02,1.74-2.42.87-4.63,2.15-6.4,4.09-.23.25-.3.47-.22.81.5,2.01.74,4.05.77,6.12.03,2.61.01,5.22.02,7.84,0,.19,0,.38,0,.64ZM48.23,93.92c1.44-2.07,3.28-3.58,5.1-5.1.9-.75,1.79-1.51,2.65-2.31,2.37-2.22,3.86-4.88,4.08-8.18.27-3.92-2.08-6.87-5.98-7.32-2.03-.23-3.85.3-5.08,2.11-.48.71-1,.67-1.56,0-.45-.55-.97-1.12-1.58-1.46-3.01-1.69-7.4-.2-8.81,2.95-1.03,2.32-.78,4.65.03,6.96.85,2.43,2.55,4.24,4.43,5.9,2.31,2.04,4.89,3.79,6.71,6.46ZM43.03,2.01c-.26.1-.41.18-.58.22-1.06.27-2.12.62-3.2.76-2.91.38-5.82.05-8.72-.14-2.93-.18-5.86-.3-8.75.38-4.27,1.01-7.22,3.49-8.53,7.77-1.03,3.34-1.05,6.75-.68,10.18.04.34.1.68.15,1.03.42-.21.78-.35,1.11-.56.18-.12.36-.32.42-.52.23-.73.38-1.48.63-2.2.99-2.85,2.57-5.28,5-7.13.39-.29.75-.43,1.21-.17,2.54,1.46,5.31,2.18,8.19,2.5,3.47.38,6.88.03,10.23-.9.78-.22,1.07-.05,1.31.71.73,2.32,1.46,4.63,2.2,6.94.05.17.15.39.29.46.39.19.81.32,1.3.5.45-6.68-.48-13.22-1.58-19.83ZM67.82,41.5c.64-.05,1.27-.09,1.91-.17,4.56-.54,7.46-3.63,8.25-7.95.15-.83.2-.9,1.01-1.04,1.1-.19,1.86-1.12,1.81-2.23-.02-.63-.39-1.06-.93-1.12-.83-.08-.92-.17-1.04-1.02-.25-1.81-1.02-2.7-2.82-3.07-.95-.19-1.93-.29-2.9-.3-1.74-.02-3.18-.62-4.32-1.93-.29-.33-.59-.67-.87-1-.64-.74-1.36-1.37-2.35-1.55-2.24-.39-4.54.27-5.98,2.36-1.17,1.69-1.72,3.61-1.96,5.63-.12.98-.1.98-1.03,1.27-.77.24-1.08.79-1.01,1.77.06.81.5,1.32,1.25,1.43.76.11.84.22,1,.99.59,2.89,2,5.22,4.64,6.68,1.66.92,3.47,1.23,5.35,1.25ZM17.9,42.26c-.85.66-1.64,1.3-2.47,1.91-.34.25-.34.47-.17.84,1.21,2.55,2.07,5.21,2.41,8.02.31,2.62.12,5.17-1.04,7.59-.19.4-.3.87-.31,1.31-.02,5.93-.01,11.87-.01,17.8,0,.49,0,.97,0,1.5.19-.06.29-.09.38-.13,3.54-1.51,7.08-3.03,10.64-4.52.43-.18.55-.42.55-.87-.02-3.44-.01-6.89-.01-10.33,0-2.88,0-5.75,0-8.63,0-.25-.05-.55-.18-.75-1.34-1.92-2.71-3.82-4.06-5.74-.18-.26-.35-.33-.66-.26-1.23.27-2.47.5-3.71.74-.96.19-1.3-.09-1.27-1.06.05-1.76.45-3.44,1.15-5.06.07-.16.15-.42.08-.54-.39-.61-.83-1.18-1.31-1.85ZM40.98,69.62c0-.29,0-.57,0-.85,0-1.95-.03-3.91.01-5.86.02-1.01-.03-1.98-.59-2.86-.12-.19-.18-.43-.25-.64-.91-2.66-.78-5.35-.23-8.04.45-2.17,1.18-4.24,2.13-6.24.08-.18.13-.52.03-.61-.83-.74-1.7-1.44-2.61-2.19-.44.61-.81,1.17-1.23,1.69-.2.25-.18.44-.06.72.7,1.63,1.12,3.33,1.12,5.12,0,.79-.32,1.08-1.09.93-1.26-.23-2.51-.48-3.76-.74-.34-.07-.54-.02-.76.28-1.33,1.88-2.69,3.75-4.03,5.63-.12.17-.2.42-.2.63-.03,3.69-.05,7.38-.07,11.07,0,.85.05,1.7.06,2.55,0,1.92.01,3.83,0,5.75,0,.33.13.46.41.58,1.39.58,2.78,1.18,4.17,1.77.25.11.51.22.84.35-.19-4.57,1.71-7.66,6.13-9.05ZM14.04,45.9c-.06,0-.13,0-.19.01-.23.27-.47.53-.69.8-3.41,4.21-4.99,9.09-5.06,14.44-.09,6.66-.03,13.32-.05,19.98,0,.5.18.58.62.58,1.79-.02,3.59,0,5.38,0,.71,0,.71,0,.71-.73,0-6.54,0-13.07.01-19.61,0-.39.12-.81.3-1.15.77-1.46,1.12-3.02,1.17-4.65.06-1.92-.24-3.79-.8-5.62-.42-1.37-.93-2.7-1.4-4.05ZM48.18,71.45c.9-.44,1.09-1.12,1.05-2-.07-1.29,0-2.59-.02-3.89-.05-2.29,0-4.59-.21-6.86-.39-4.24-1.89-8.1-4.47-11.51-.32-.43-.68-.83-1.05-1.29-.1.15-.14.2-.17.27-1.11,2.44-1.93,4.96-2.19,7.64-.22,2.34.02,4.61,1.24,6.69.13.23.16.54.16.82.01,2.47,0,4.94,0,7.41,0,.21,0,.41,0,.67,2.22-.06,4.15.49,5.66,2.06ZM75.84,10.76c.03-.11.06-.14.05-.17-.13-1.06.16-1.96,1-2.67.1-.08.09-.39.03-.55-.99-2.3-2.63-3.97-4.92-5-4.75-2.16-10.62.19-12.56,5.03-.11.27-.1.43.14.63.69.57.98,1.33.93,2.22,0,.15,0,.31,0,.51,5.15.59,10.25.58,15.33,0ZM64.23,42.63c0,1.6,0,3.1,0,4.61,0,.13.09.27.17.37,1.01,1.33,2.01,2.66,3.03,3.98.32.42,1.18.41,1.5,0,.82-1.07,1.6-2.17,2.47-3.2.58-.68.81-1.39.76-2.27-.07-1.2-.02-2.41-.02-3.68-2.64.73-5.24.78-7.92.19ZM34.18,38.82c-1.84.64-3.66.95-5.53.99-1.87.03-3.7-.2-5.56-.72,0,.38.03.68,0,.98-.06.55.13.97.52,1.37.99,1.04,1.94,2.12,2.91,3.18.7.77,1.4,1.53,2.14,2.33,1.84-2.02,3.62-3.99,5.41-5.96.07-.07.12-.19.12-.28.01-.6,0-1.2,0-1.87ZM35.47,81.67c-.26-.48-.07-1.07-.7-1.33-1.9-.79-3.78-1.62-5.69-2.4-.26-.11-.63-.11-.89,0-2.73,1.14-5.45,2.31-8.18,3.48-.12.05-.23.12-.35.18l.02.08h15.77ZM27.12,47.61c-1.64-1.8-3.2-3.52-4.78-5.24-1.51,1.77-2.93,5.35-2.66,6.71,2.45-.48,4.89-.97,7.44-1.47ZM34.96,42.34c-1.61,1.77-3.17,3.48-4.8,5.27,2.56.51,5.01.99,7.54,1.49-.25-2.57-1.22-4.72-2.74-6.76ZM28.65,54.65c1.23-1.71,2.4-3.33,3.56-4.94-2.39-.88-4.72-.89-7.08,0,1.15,1.62,2.3,3.24,3.52,4.95ZM79.69,10.11c.03-.6-.46-1.13-1.08-1.17-.61-.04-1.15.45-1.19,1.05-.04.63.46,1.18,1.1,1.2.6.02,1.14-.48,1.17-1.08ZM58.93,10.06c0-.64-.49-1.12-1.11-1.11-.61,0-1.13.51-1.13,1.11,0,.63.52,1.14,1.16,1.13.62,0,1.09-.5,1.09-1.13ZM37.15,42.85c.39-.53.69-.94,1.04-1.43-.82-.44-1.58-.85-2.48-1.33.05,1.25,1.06,1.75,1.44,2.77ZM19.25,41.44c.32.45.59.83.93,1.3.34-.9,1.26-1.37,1.35-2.32-.04-.04-.09-.08-.13-.12-.7.37-1.39.74-2.14,1.14ZM68.83,53.86c-.31-.2-.5-.4-.65-.38-.16.02-.29.27-.43.42.15.14.29.39.46.4.15.01.33-.21.62-.43Z"/><path class="cls-1" d="M17.76,40.66c-1.53,1.54-3.06,3.09-4.59,4.63-.76.76-1.53,1.52-2.3,2.28-.1.1-.23.16-.34.24.08-.17.13-.36.24-.51,1.79-2.51,3.79-4.81,6.47-6.43.16-.1.34-.14.52-.21Z"/><path class="cls-1" d="M27.02,29.96c1.13,0,2.26,0,3.39,0,1.02,0,1.32.39,1.1,1.41-.28,1.28-1.33,2.21-2.65,2.32-1.23.11-2.45-.63-2.93-1.79-.09-.21-.16-.44-.18-.66-.13-.99.16-1.27,1.28-1.28ZM27.61,31.54c.58.79,1.62.78,2.02,0h-2.02Z"/><path class="cls-1" d="M22.58,25.53c-.58,0-1.03-.47-1.03-1.05,0-.56.48-1.04,1.05-1.04.59,0,1.07.49,1.05,1.09-.02.59-.47,1.02-1.07,1.01Z"/><path class="cls-1" d="M34.68,25.53c-.53,0-1.02-.45-1.02-.94,0-.63.49-1.17,1.06-1.16.55,0,1.04.52,1.03,1.07-.02.58-.48,1.02-1.07,1.02Z"/><path class="cls-1" d="M68.18,34.61c1.05,0,2.09-.01,3.14,0,.63,0,.87.33.84,1.03-.1,1.98-1.74,3.63-3.7,3.73-2.11.11-3.92-1.36-4.21-3.41-.15-1.06.1-1.35,1.17-1.34.92,0,1.84,0,2.77,0h0ZM65.96,36.2c.39,1.05,1.32,1.65,2.39,1.59.96-.05,1.82-.71,2.05-1.59h-4.44Z"/><path class="cls-1" d="M63.2,29.33c.48,0,1.01.51,1.02.98.01.55-.49,1.04-1.06,1.03-.52-.01-.95-.48-.95-1.02,0-.52.47-.98.99-.98Z"/><path class="cls-1" d="M73.21,29.28c.58,0,.96.39.95.98,0,.56-.47,1.01-1.04.98-.55-.02-.95-.47-.94-1.02.01-.52.48-.95,1.02-.94Z"/><path class="cls-1" d="M32.19,58.26c1.26,0,2.29,1.05,2.28,2.32,0,1.29-1.05,2.31-2.36,2.29-1.28-.02-2.3-1.04-2.29-2.32.01-1.29,1.05-2.31,2.36-2.3ZM32.16,59.83c-.41,0-.75.32-.76.73,0,.39.35.76.74.76.4,0,.75-.34.76-.74,0-.4-.33-.74-.74-.75Z"/><path class="cls-1" d="M32.13,67.42c1.38-.04,2.33,1.18,2.34,2.32,0,1.27-1.04,2.3-2.3,2.3-1.16,0-2.34-1.08-2.33-2.19,0-1.25,1-2.49,2.3-2.44ZM32.17,68.94c-.46,0-.81.35-.8.82,0,.41.34.76.73.76.38,0,.84-.45.83-.83,0-.37-.39-.75-.77-.75Z"/></svg>